<svg width="360" height="107" viewBox="0 0 360 107" fill="none" xmlns="http://www.w3.org/2000/svg">
<line x1="24" y1="18.5" x2="335" y2="18.5" stroke="#F0F0F0"/>
<line x1="24" y1="37.5" x2="335" y2="37.5" stroke="#F0F0F0"/>
<line x1="24" y1="56.5" x2="335" y2="56.5" stroke="#F0F0F0"/>
<line x1="24" y1="75.5" x2="335" y2="75.5" stroke="#F0F0F0"/>
<line x1="24" y1="94.5" x2="335" y2="94.5" stroke="#F0F0F0"/>
<path d="M25 101C44.1574 82.665 67.2953 67.5095 92.6269 54.0556C114.547 42.4133 137.812 31.7935 157.878 18.3333C161.481 15.9166 165.373 10.8864 169.533 14.7778C176.761 21.5395 182.407 29.0865 186.384 37.2222C189.849 44.3103 190.69 50.8505 190.69 58.2778C190.69 63.6685 200.054 50.3845 201.082 49.2222C209.409 39.811 219.174 31.683 229.811 23.7222C231.483 22.471 237.308 16.5446 237.457 21.2222C237.745 30.2769 239.269 27.7471 250.077 25C259.963 22.4872 270.542 21.0813 279.696 17.1667C285.773 14.5679 289.681 21.2389 292.687 24.5556C299.428 31.9934 304.926 33.3976 317.035 32.9444C323.058 32.7191 322.153 27.8759 324.31 24.4444C327.397 19.5351 332.754 15.0437 335 10" stroke="url(#paint0_linear_427_236)" stroke-width="3" stroke-linecap="round"/>
<path d="M25 105C44.1574 86.665 109 69 93 38C107.694 28.2545 147.5 53.2222 157.878 22.3333C168.257 -8.55556 165.373 14.8864 169.533 18.7778C176.761 25.5395 199.268 24.3889 186.384 41.2222C173.5 58.0556 190.69 54.8505 190.69 62.2778C190.69 67.6685 200.054 54.3845 201.082 53.2222C209.409 43.811 223.622 42.9444 229.811 27.7222C236 12.5 237.308 20.5446 237.457 25.2222C237.745 34.2769 246.192 14.2471 257 11.5C266.886 8.98722 268.346 49.9146 277.5 46C283.577 43.4013 289.681 25.2389 292.687 28.5556C299.428 35.9934 304.89 19.2309 317 18.7778C323.023 18.5524 322.153 31.8759 324.31 28.4444C330.5 34.5 327.754 7.04373 330 2" stroke="url(#paint1_linear_427_236)" stroke-width="3" stroke-linecap="round"/>
<defs>
<linearGradient id="paint0_linear_427_236" x1="338.5" y1="5.99999" x2="21" y2="101" gradientUnits="userSpaceOnUse">
<stop stop-color="#00B0E8"/>
<stop offset="0.583338" stop-color="#7A00F3"/>
<stop offset="1" stop-color="white"/>
</linearGradient>
<linearGradient id="paint1_linear_427_236" x1="326" y1="-4" x2="20.5" y2="102.5" gradientUnits="userSpaceOnUse">
<stop stop-color="#B900D7"/>
<stop offset="0.807304" stop-color="#5100FD"/>
<stop offset="1" stop-color="white"/>
</linearGradient>
</defs>
</svg>
